<svg width="43" height="31" viewBox="0 0 43 31" fill="none" xmlns="http://www.w3.org/2000/svg">
<path d="M39.7582 5.9646V28.8637H6.49455V24.2839H4.27698V3.67468H35.323V5.9646H39.7582ZM30.8879 5.9646C30.8879 6.28661 30.9456 6.58478 31.0611 6.85909C31.1766 7.13341 31.3326 7.37194 31.5289 7.57469C31.7252 7.77744 31.962 7.94442 32.2392 8.07561C32.5164 8.2068 32.8052 8.26644 33.1055 8.25451V5.9646H30.8879ZM6.49455 8.25451C6.8064 8.25451 7.09515 8.19488 7.36079 8.07561C7.62644 7.95634 7.85744 7.79533 8.05379 7.59258C8.25013 7.38983 8.41183 7.14533 8.53888 6.85909C8.66593 6.57285 8.72368 6.27469 8.71213 5.9646H6.49455V8.25451ZM6.49455 17.4142C7.1067 17.4142 7.67841 17.5334 8.20971 17.772C8.741 18.0105 9.21455 18.3385 9.63034 18.7559C10.0461 19.1733 10.3638 19.6564 10.5832 20.205C10.8027 20.7536 10.9182 21.3499 10.9297 21.994H28.6703C28.6703 21.3619 28.7858 20.7715 29.0168 20.2229C29.2478 19.6743 29.5654 19.1853 29.9697 18.7559C30.3739 18.3265 30.8417 17.9986 31.373 17.772C31.9043 17.5454 32.4818 17.4261 33.1055 17.4142V10.5444C32.4933 10.5444 31.9216 10.4252 31.3903 10.1866C30.859 9.94809 30.3855 9.62011 29.9697 9.20268C29.5539 8.78524 29.2362 8.30222 29.0168 7.75359C28.7974 7.20497 28.6819 6.60863 28.6703 5.9646H10.9297C10.9297 6.59671 10.8142 7.18708 10.5832 7.7357C10.3522 8.28433 10.0346 8.77332 9.63034 9.20268C9.2261 9.63203 8.75833 9.96002 8.22703 10.1866C7.69574 10.4132 7.11825 10.5325 6.49455 10.5444V17.4142ZM33.1055 19.7041C32.7936 19.7041 32.5049 19.7637 32.2392 19.883C31.9736 20.0022 31.7426 20.1632 31.5462 20.366C31.3499 20.5688 31.1882 20.8132 31.0611 21.0995C30.9341 21.3857 30.8763 21.6839 30.8879 21.994H33.1055V19.7041ZM6.49455 21.994H8.71213C8.71213 21.672 8.65438 21.3738 8.53888 21.0995C8.42338 20.8252 8.26746 20.5866 8.07111 20.3839C7.87476 20.1811 7.63799 20.0142 7.36079 19.883C7.0836 19.7518 6.79485 19.6921 6.49455 19.7041V21.994ZM37.5406 8.25451H35.323V24.2839H8.71213V26.5738H37.5406V8.25451ZM12.0385 15.1242C11.7382 15.1242 11.4783 15.0109 11.2589 14.7843C11.0394 14.5577 10.9297 14.2894 10.9297 13.9793C10.9297 13.6692 11.0394 13.4008 11.2589 13.1742C11.4783 12.9476 11.7382 12.8343 12.0385 12.8343C12.3388 12.8343 12.5987 12.9476 12.8181 13.1742C13.0376 13.4008 13.1473 13.6692 13.1473 13.9793C13.1473 14.2894 13.0376 14.5577 12.8181 14.7843C12.5987 15.0109 12.3388 15.1242 12.0385 15.1242ZM27.5615 15.1242C27.2612 15.1242 27.0014 15.0109 26.7819 14.7843C26.5625 14.5577 26.4527 14.2894 26.4527 13.9793C26.4527 13.6692 26.5625 13.4008 26.7819 13.1742C27.0014 12.9476 27.2612 12.8343 27.5615 12.8343C27.8618 12.8343 28.1217 12.9476 28.3411 13.1742C28.5606 13.4008 28.6703 13.6692 28.6703 13.9793C28.6703 14.2894 28.5606 14.5577 28.3411 14.7843C28.1217 15.0109 27.8618 15.1242 27.5615 15.1242ZM19.8 19.7041C19.1879 19.7041 18.6161 19.5848 18.0848 19.3463C17.5536 19.1077 17.08 18.7798 16.6642 18.3623C16.2484 17.9449 15.9308 17.4619 15.7114 16.9132C15.4919 16.3646 15.3764 15.7683 15.3649 15.1242V12.8343C15.3649 12.2022 15.4804 11.6119 15.7114 11.0632C15.9423 10.5146 16.26 10.0256 16.6642 9.59625C17.0685 9.1669 17.5362 8.83891 18.0675 8.61231C18.5988 8.3857 19.1763 8.26644 19.8 8.25451C20.4121 8.25451 20.9839 8.37378 21.5152 8.61231C22.0465 8.85084 22.52 9.17882 22.9358 9.59625C23.3516 10.0137 23.6692 10.4967 23.8887 11.0453C24.1081 11.594 24.2236 12.1903 24.2352 12.8343V15.1242C24.2352 15.7564 24.1197 16.3467 23.8887 16.8954C23.6577 17.444 23.34 17.933 22.9358 18.3623C22.5315 18.7917 22.0638 19.1197 21.5325 19.3463C21.0012 19.5729 20.4237 19.6921 19.8 19.7041ZM17.5824 15.1242C17.5824 15.4463 17.6402 15.7444 17.7557 16.0187C17.8712 16.2931 18.0271 16.5316 18.2234 16.7343C18.4198 16.9371 18.6566 17.1041 18.9338 17.2353C19.211 17.3665 19.4997 17.4261 19.8 17.4142C20.1119 17.4142 20.4006 17.3545 20.6662 17.2353C20.9319 17.116 21.1629 16.955 21.3592 16.7522C21.5556 16.5495 21.7173 16.305 21.8443 16.0187C21.9714 15.7325 22.0291 15.4343 22.0176 15.1242V12.8343C22.0176 12.5123 21.9598 12.2141 21.8443 11.9398C21.7288 11.6655 21.5729 11.427 21.3766 11.2242C21.1802 11.0215 20.9434 10.8545 20.6662 10.7233C20.389 10.5921 20.1003 10.5325 19.8 10.5444C19.4882 10.5444 19.1994 10.6041 18.9338 10.7233C18.6681 10.8426 18.4371 11.0036 18.2408 11.2063C18.0444 11.4091 17.8827 11.6536 17.7557 11.9398C17.6286 12.2261 17.5709 12.5242 17.5824 12.8343V15.1242Z" fill="#297AFF"/>
<path d="M1.6731 29.7028L41.6731 1.70276" stroke="#297AFF" stroke-width="1.47551" stroke-linecap="round"/>
</svg>
