<svg width="34" height="37" viewBox="0 0 34 37" fill="none" xmlns="http://www.w3.org/2000/svg">
<path d="M11.8514 5.7828C12.8481 2.86613 16.8781 2.7778 18.0598 5.5178L18.1598 5.78447L19.5048 9.7178C19.813 10.6199 20.3111 11.4453 20.9655 12.1385C21.6198 12.8317 22.4153 13.3765 23.2981 13.7361L23.6598 13.8711L27.5931 15.2145C30.5098 16.2111 30.5981 20.2411 27.8598 21.4228L27.5931 21.5228L23.6598 22.8678C22.7574 23.1758 21.9316 23.6738 21.2381 24.3282C20.5446 24.9826 19.9996 25.7781 19.6398 26.6611L19.5048 27.0211L18.1614 30.9561C17.1648 33.8728 13.1348 33.9611 11.9548 31.2228L11.8514 30.9561L10.5081 27.0228C10.2001 26.1204 9.70204 25.2946 9.04766 24.6012C8.39327 23.9077 7.59774 23.3626 6.71475 23.0028L6.35475 22.8678L2.42142 21.5245C-0.496914 20.5278 -0.585247 16.4978 2.15475 15.3178L2.42142 15.2145L6.35475 13.8711C7.25681 13.5629 8.08227 13.0648 8.77546 12.4104C9.46865 11.756 10.0134 10.9606 10.3731 10.0778L10.5081 9.7178L11.8514 5.7828ZM28.3398 0.0361331C28.6516 0.0361324 28.9571 0.123597 29.2217 0.288585C29.4862 0.453574 29.6992 0.689471 29.8364 0.969466L29.9164 1.16447L30.4998 2.87447L32.2114 3.4578C32.5239 3.56396 32.7978 3.76049 32.9985 4.02249C33.1991 4.28449 33.3175 4.60016 33.3385 4.9295C33.3596 5.25884 33.2824 5.58702 33.1168 5.87245C32.9511 6.15787 32.7045 6.3877 32.4081 6.5328L32.2114 6.6128L30.5014 7.19613L29.9181 8.9078C29.8117 9.22018 29.6151 9.49396 29.353 9.69445C29.0909 9.89494 28.7751 10.0131 28.4458 10.034C28.1165 10.0549 27.7884 9.97754 27.5031 9.81176C27.2177 9.64599 26.988 9.39925 26.8431 9.1028L26.7631 8.9078L26.1798 7.1978L24.4681 6.61447C24.1556 6.50831 23.8817 6.31177 23.681 6.04977C23.4804 5.78778 23.362 5.4721 23.341 5.14277C23.3199 4.81343 23.3971 4.48525 23.5627 4.19982C23.7284 3.91439 23.975 3.68457 24.2714 3.53947L24.4681 3.45947L26.1781 2.87613L26.7614 1.16447C26.8738 0.835176 27.0864 0.549314 27.3695 0.346964C27.6525 0.144615 27.9918 0.035924 28.3398 0.0361331Z" fill="#297AFF"/>
</svg>
