<svg width="34" height="28" viewBox="0 0 34 28" fill="none" xmlns="http://www.w3.org/2000/svg">
<path d="M8.33974 20.3694C8.81196 20.3694 9.20807 20.2094 9.52808 19.8894C9.84807 19.5694 10.0075 19.1738 10.0064 18.7027C10.0053 18.2316 9.8453 17.8361 9.52641 17.5161C9.20752 17.1961 8.81196 17.0361 8.33974 17.0361C7.86752 17.0361 7.47196 17.1961 7.15308 17.5161C6.83419 17.8361 6.67419 18.2316 6.67308 18.7027C6.67196 19.1738 6.83196 19.5699 7.15308 19.8911C7.47419 20.2122 7.86974 20.3716 8.33974 20.3694ZM8.33974 15.3694C8.81196 15.3694 9.20807 15.2094 9.52808 14.8894C9.84807 14.5694 10.0075 14.1738 10.0064 13.7027V8.70272C10.0064 8.2305 9.84641 7.83494 9.52641 7.51605C9.20641 7.19716 8.81085 7.03716 8.33974 7.03605C7.86863 7.03494 7.47308 7.19494 7.15308 7.51605C6.83308 7.83716 6.67308 8.23272 6.67308 8.70272V13.7027C6.67308 14.1749 6.83308 14.5711 7.15308 14.8911C7.47308 15.2111 7.86863 15.3705 8.33974 15.3694ZM15.0064 18.7027H25.0064C25.4786 18.7027 25.8747 18.5427 26.1947 18.2227C26.5147 17.9027 26.6742 17.5072 26.6731 17.0361C26.672 16.5649 26.512 16.1694 26.1931 15.8494C25.8742 15.5294 25.4786 15.3694 25.0064 15.3694H15.0064C14.5342 15.3694 14.1386 15.5294 13.8197 15.8494C13.5009 16.1694 13.3409 16.5649 13.3397 17.0361C13.3386 17.5072 13.4986 17.9033 13.8197 18.2244C14.1409 18.5455 14.5364 18.7049 15.0064 18.7027ZM15.0064 12.0361H25.0064C25.4786 12.0361 25.8747 11.8761 26.1947 11.5561C26.5147 11.2361 26.6742 10.8405 26.6731 10.3694C26.672 9.89827 26.512 9.50272 26.1931 9.18272C25.8742 8.86272 25.4786 8.70272 25.0064 8.70272H15.0064C14.5342 8.70272 14.1386 8.86272 13.8197 9.18272C13.5009 9.50272 13.3409 9.89827 13.3397 10.3694C13.3386 10.8405 13.4986 11.2366 13.8197 11.5577C14.1409 11.8788 14.5364 12.0383 15.0064 12.0361ZM3.33974 27.0361C2.42308 27.0361 1.63863 26.7099 0.986409 26.0577C0.334187 25.4055 0.0075198 24.6205 0.00640869 23.7027V3.70272C0.00640869 2.78605 0.333075 2.00161 0.986409 1.34938C1.63974 0.697162 2.42419 0.370496 3.33974 0.369385H30.0064C30.9231 0.369385 31.7081 0.696051 32.3614 1.34938C33.0147 2.00272 33.3409 2.78716 33.3397 3.70272V23.7027C33.3397 24.6194 33.0136 25.4044 32.3614 26.0577C31.7092 26.7111 30.9242 27.0372 30.0064 27.0361H3.33974ZM3.33974 23.7027H30.0064V3.70272H3.33974V23.7027Z" fill="#297AFF"/>
</svg>
