<svg width="24" height="24" viewBox="0 0 24 24" fill="none" xmlns="http://www.w3.org/2000/svg">
<path d="M8.24998 10.125C8.24998 9.87636 8.34875 9.6379 8.52456 9.46209C8.70038 9.28627 8.93884 9.1875 9.18748 9.1875H14.8125C15.0611 9.1875 15.2996 9.28627 15.4754 9.46209C15.6512 9.6379 15.75 9.87636 15.75 10.125C15.75 10.3736 15.6512 10.6121 15.4754 10.7879C15.2996 10.9637 15.0611 11.0625 14.8125 11.0625H9.18748C8.93884 11.0625 8.70038 10.9637 8.52456 10.7879C8.34875 10.6121 8.24998 10.3736 8.24998 10.125ZM9.18748 12.9375C8.93884 12.9375 8.70038 13.0363 8.52456 13.2121C8.34875 13.3879 8.24998 13.6264 8.24998 13.875C8.24998 14.1236 8.34875 14.3621 8.52456 14.5379C8.70038 14.7137 8.93884 14.8125 9.18748 14.8125H12.9375C13.1861 14.8125 13.4246 14.7137 13.6004 14.5379C13.7762 14.3621 13.875 14.1236 13.875 13.875C13.875 13.6264 13.7762 13.3879 13.6004 13.2121C13.4246 13.0363 13.1861 12.9375 12.9375 12.9375H9.18748ZM0.749976 12C0.750454 9.52321 1.56827 7.11581 3.07657 5.15124C4.58486 3.18667 6.69932 1.77476 9.09193 1.13453C11.4845 0.494295 14.0216 0.661531 16.3094 1.61029C18.5973 2.55906 20.5081 4.23631 21.7455 6.38187C22.9828 8.52742 23.4776 11.0213 23.1529 13.4768C22.8283 15.9322 21.7024 18.2118 19.9499 19.9621C18.1975 21.7124 15.9164 22.8354 13.4606 23.157C11.0048 23.4785 8.51148 22.9807 6.36748 21.7406L1.98373 23.2031C1.82177 23.2572 1.64812 23.266 1.48152 23.2286C1.31491 23.1912 1.16169 23.109 1.03837 22.9909C0.915061 22.8728 0.826344 22.7233 0.781797 22.5585C0.73725 22.3936 0.738565 22.2198 0.785601 22.0556L2.1206 17.385C1.22064 15.7328 0.749389 13.8814 0.749976 12ZM12 2.625C10.3447 2.6249 8.71889 3.06306 7.28783 3.89495C5.85677 4.72684 4.67148 5.9228 3.85245 7.36125C3.03341 8.79971 2.60983 10.4294 2.62477 12.0846C2.6397 13.7398 3.09262 15.3616 3.93748 16.785C4.00248 16.895 4.04432 17.017 4.06045 17.1438C4.07657 17.2705 4.06662 17.3991 4.03123 17.5219L3.07685 20.8594L6.1856 19.8244C6.31763 19.7803 6.45781 19.7662 6.59597 19.7831C6.73413 19.7999 6.8668 19.8474 6.98435 19.9219C8.21298 20.6994 9.60563 21.1805 11.0522 21.3272C12.4988 21.4738 13.9597 21.282 15.3194 20.7669C16.679 20.2517 17.9003 19.4274 18.8865 18.359C19.8727 17.2906 20.5969 16.0074 21.0019 14.6109C21.4068 13.2145 21.4814 11.7429 21.2197 10.3127C20.958 8.88243 20.3672 7.53264 19.494 6.37002C18.6209 5.2074 17.4892 4.26381 16.1886 3.61384C14.888 2.96388 13.454 2.62534 12 2.625Z" fill="white"/>
</svg>
