<svg width="26" height="25" viewBox="0 0 26 25" fill="none" xmlns="http://www.w3.org/2000/svg">
<path d="M8.09921 20.1622L12.7221 17.3738L17.345 20.1989L16.1343 14.9156L20.2068 11.3934L14.8501 10.9164L12.7221 5.92662L10.5941 10.8797L5.23741 11.3567L9.30997 14.9156L8.09921 20.1622ZM12.7221 20.8227L6.63162 24.4916C6.36256 24.6628 6.08127 24.7362 5.78776 24.7118C5.49424 24.6873 5.23741 24.5895 5.01727 24.4182C4.79713 24.247 4.62591 24.0333 4.50361 23.7769C4.38132 23.5206 4.35686 23.2329 4.43023 22.914L6.04458 15.9796L0.651192 11.32C0.406594 11.0999 0.253964 10.8489 0.193304 10.5671C0.132644 10.2854 0.150744 10.0104 0.247605 9.74235C0.344466 9.47427 0.491225 9.25413 0.687882 9.08193C0.884539 8.90974 1.1536 8.79967 1.49506 8.75173L8.61287 8.128L11.3646 1.59723C11.4869 1.30371 11.6767 1.08357 11.934 0.936813C12.1913 0.790054 12.454 0.716675 12.7221 0.716675C12.9902 0.716675 13.2529 0.790054 13.5102 0.936813C13.7675 1.08357 13.9573 1.30371 14.0796 1.59723L16.8314 8.128L23.9492 8.75173C24.2916 8.80065 24.5607 8.91072 24.7564 9.08193C24.952 9.25315 25.0988 9.47329 25.1966 9.74235C25.2945 10.0114 25.3131 10.2868 25.2524 10.5686C25.1917 10.8504 25.0386 11.1009 24.793 11.32L19.3996 15.9796L21.014 22.914C21.0874 23.2319 21.0629 23.5196 20.9406 23.7769C20.8183 24.0342 20.6471 24.248 20.427 24.4182C20.2068 24.5885 19.95 24.6863 19.6565 24.7118C19.363 24.7372 19.0817 24.6638 18.8126 24.4916L12.7221 20.8227Z" fill="white"/>
</svg>
