<svg width="25" height="24" viewBox="0 0 25 24" fill="none" xmlns="http://www.w3.org/2000/svg">
<path d="M8.12153 16.6452V14.4548H10.4943C10.4034 14.8198 10.3444 15.1849 10.3175 15.55C10.2906 15.9151 10.295 16.2802 10.3306 16.6452H8.12153ZM8.12153 22.1214C6.61244 22.1214 5.32626 21.5873 4.26299 20.5191C3.19971 19.4509 2.66771 18.1596 2.66699 16.6452V6.7881C2.06699 6.7881 1.55353 6.5738 1.12662 6.1452C0.699714 5.7166 0.485896 5.20074 0.485168 4.59763V2.40715C0.485168 1.80477 0.698987 1.28928 1.12662 0.860675C1.55426 0.432072 2.06771 0.217405 2.66699 0.216675H13.5761C14.1761 0.216675 14.6899 0.431342 15.1175 0.860675C15.5452 1.29001 15.7586 1.8055 15.7579 2.40715V4.59763C15.7579 5.20001 15.5444 5.71587 15.1175 6.1452C14.6906 6.57453 14.1768 6.78883 13.5761 6.7881V10.1012C13.1397 10.375 12.7397 10.6945 12.3761 11.0595C12.0124 11.4246 11.6943 11.8262 11.4215 12.2643H8.12153V10.0738H11.3943V6.7881H4.8488V16.6452C4.8488 17.5579 5.16699 18.3337 5.80335 18.9726C6.43971 19.6115 7.21244 19.931 8.12153 19.931C8.66699 19.931 9.16262 19.8123 9.60844 19.575C10.0543 19.3377 10.4313 19.0091 10.7397 18.5893C10.8852 18.9544 11.0488 19.3012 11.2306 19.6298C11.4124 19.9583 11.6306 20.2778 11.8852 20.5881C11.3943 21.0627 10.8306 21.4369 10.1943 21.7107C9.5579 21.9845 8.86699 22.1214 8.12153 22.1214ZM2.66699 4.59763H13.5761V2.40715H2.66699V4.59763ZM17.3943 18.8357C18.1579 18.8357 18.8034 18.571 19.3306 18.0417C19.8579 17.5123 20.1215 16.8643 20.1215 16.0976C20.1215 15.331 19.8579 14.6829 19.3306 14.1536C18.8034 13.6242 18.1579 13.3595 17.3943 13.3595C16.6306 13.3595 15.9852 13.6242 15.4579 14.1536C14.9306 14.6829 14.667 15.331 14.667 16.0976C14.667 16.8643 14.9306 17.5123 15.4579 18.0417C15.9852 18.571 16.6306 18.8357 17.3943 18.8357ZM22.9579 23.2167L20.0124 20.2595C19.6124 20.5151 19.1943 20.7068 18.7579 20.8345C18.3215 20.9623 17.867 21.0262 17.3943 21.0262C16.0306 21.0262 14.8717 20.5472 13.9175 19.5892C12.9634 18.6313 12.4859 17.4674 12.4852 16.0976C12.4844 14.7278 12.9619 13.5643 13.9175 12.6071C14.8732 11.6499 16.0321 11.1705 17.3943 11.1691C18.7564 11.1676 19.9157 11.6469 20.8721 12.6071C21.8284 13.5673 22.3055 14.7308 22.3034 16.0976C22.3034 16.5722 22.2397 17.0286 22.1124 17.4667C21.9852 17.9048 21.7943 18.3246 21.5397 18.7262L24.4852 21.6833L22.9579 23.2167Z" fill="white"/>
</svg>
