<svg width="21" height="24" viewBox="0 0 21 24" fill="none" xmlns="http://www.w3.org/2000/svg">
<path d="M19.7255 18.1362L13.7122 7.93771V2.43097H14.8889C15.201 2.43097 15.5004 2.30831 15.7211 2.08998C15.9417 1.87165 16.0657 1.57552 16.0657 1.26675C16.0657 0.957985 15.9417 0.661862 15.7211 0.44353C15.5004 0.225197 15.201 0.102539 14.8889 0.102539H5.47466C5.16255 0.102539 4.86323 0.225197 4.64254 0.44353C4.42185 0.661862 4.29787 0.957985 4.29787 1.26675C4.29787 1.57552 4.42185 1.87165 4.64254 2.08998C4.86323 2.30831 5.16255 2.43097 5.47466 2.43097H6.65144V7.93771L0.638067 18.1362C0.325682 18.6668 0.160192 19.2694 0.158281 19.8834C0.156369 20.4974 0.318103 21.1011 0.627179 21.6335C0.936256 22.166 1.38175 22.6084 1.91876 22.9162C2.45577 23.2241 3.06531 23.3864 3.68594 23.3868H16.6306C17.2512 23.3864 17.8608 23.2241 18.3978 22.9162C18.9348 22.6084 19.3803 22.166 19.6893 21.6335C19.9984 21.1011 20.1602 20.4974 20.1582 19.8834C20.1563 19.2694 19.9908 18.6668 19.6785 18.1362H19.7255ZM8.84026 8.82251C8.94406 8.64962 9.00082 8.45309 9.00501 8.25205V2.43097H11.3586V8.25205C11.3607 8.45705 11.4176 8.65785 11.5233 8.83415L12.5354 10.5805H7.82823L8.84026 8.82251ZM17.6897 20.4647C17.587 20.6406 17.4396 20.7869 17.262 20.889C17.0845 20.9912 16.883 21.0455 16.6777 21.0468H3.73301C3.52765 21.0455 3.32618 20.9912 3.14864 20.889C2.9711 20.7869 2.82366 20.6406 2.72098 20.4647C2.61769 20.2877 2.56332 20.0869 2.56332 19.8826C2.56332 19.6782 2.61769 19.4774 2.72098 19.3004L6.45139 12.9089H13.924L17.6897 19.3121C17.793 19.4891 17.8474 19.6898 17.8474 19.8942C17.8474 20.0986 17.793 20.2993 17.6897 20.4763V20.4647ZM7.82823 15.2373C7.59548 15.2373 7.36796 15.3056 7.17444 15.4335C6.98092 15.5615 6.83009 15.7433 6.74102 15.956C6.65195 16.1688 6.62865 16.4028 6.67405 16.6287C6.71946 16.8545 6.83154 17.062 6.99612 17.2248C7.16069 17.3876 7.37037 17.4985 7.59865 17.5434C7.82692 17.5883 8.06354 17.5653 8.27856 17.4771C8.49359 17.389 8.67738 17.2398 8.80669 17.0484C8.936 16.8569 9.00501 16.6318 9.00501 16.4016C9.00501 16.0928 8.88103 15.7967 8.66034 15.5783C8.43965 15.36 8.14033 15.2373 7.82823 15.2373ZM12.5354 16.4016C12.3026 16.4016 12.0751 16.4698 11.8816 16.5978C11.6881 16.7257 11.5372 16.9075 11.4482 17.1202C11.3591 17.333 11.3358 17.5671 11.3812 17.7929C11.4266 18.0187 11.5387 18.2262 11.7033 18.389C11.8678 18.5518 12.0775 18.6627 12.3058 18.7076C12.5341 18.7525 12.7707 18.7295 12.9857 18.6414C13.2007 18.5532 13.3845 18.404 13.5138 18.2126C13.6431 18.0211 13.7122 17.796 13.7122 17.5658C13.7122 17.257 13.5882 16.9609 13.3675 16.7425C13.1468 16.5242 12.8475 16.4016 12.5354 16.4016Z" fill="white"/>
</svg>
