<svg width="23" height="23" viewBox="0 0 23 23" fill="none" xmlns="http://www.w3.org/2000/svg">
<path d="M8.27555 4.90999C7.21222 4.95093 6.25095 5.33043 5.73701 5.84498C5.68023 5.90172 5.61283 5.94672 5.53866 5.97741C5.4645 6.0081 5.38501 6.02388 5.30474 6.02385C5.22447 6.02382 5.145 6.00798 5.07085 5.97724C4.9967 5.9465 4.92934 5.90145 4.8726 5.84467C4.81586 5.78789 4.77086 5.7205 4.74017 5.64633C4.70948 5.57216 4.6937 5.49267 4.69373 5.4124C4.69375 5.33214 4.70959 5.25266 4.74034 5.17851C4.77108 5.10437 4.81613 5.037 4.8729 4.98026C5.66551 4.18766 6.95617 3.73788 8.22788 3.68838C9.50815 3.63888 10.9058 3.98905 11.8847 4.96804C11.9993 5.08271 12.0637 5.2382 12.0636 5.40031C12.0636 5.56242 11.9991 5.71786 11.8844 5.83245C11.7698 5.94704 11.6143 6.01138 11.4522 6.01132C11.2901 6.01127 11.1346 5.94681 11.02 5.83215C10.3539 5.16543 9.33093 4.86843 8.27555 4.90937" fill="white"/>
<path fill-rule="evenodd" clip-rule="evenodd" d="M14.5015 13.8125C15.7131 12.3806 16.3767 10.5648 16.3739 8.68902C16.3739 4.30127 12.8173 0.744629 8.42956 0.744629C4.04181 0.744629 0.485168 4.30127 0.485168 8.68902C0.485168 13.0768 4.04181 16.6334 8.42956 16.6334C10.382 16.6334 12.1695 15.9294 13.5531 14.761L13.3184 16.1103L17.9103 20.7022L20.4427 18.1697L15.8508 13.5779L14.5015 13.8125ZM8.42956 14.8001C11.8047 14.8001 14.5406 12.0642 14.5406 8.68902C14.5406 5.31388 11.8047 2.57795 8.42956 2.57795C5.05441 2.57795 2.31849 5.31388 2.31849 8.68902C2.31849 12.0642 5.05441 14.8001 8.42956 14.8001Z" fill="white"/>
<path d="M18.7744 21.5662L21.3068 19.0338L22.1355 19.8625C22.6018 20.3287 22.6018 21.0847 22.1355 21.5504L21.291 22.3949C20.8247 22.8612 20.0687 22.8612 19.6031 22.3949L18.7744 21.5662Z" fill="white"/>
</svg>
